<svg xmlns="http://www.w3.org/2000/svg" viewBox="0 0 24 30" fill="none" x="0px" y="0px"><path fill-rule="evenodd" clip-rule="evenodd" d="M4.5 6C4.5 5.72386 4.72386 5.5 5 5.5H8.85714C9.04314 5.5 9.21376 5.60324 9.30006 5.768L15.4454 17.5H19C19.2761 17.5 19.5 17.7239 19.5 18C19.5 18.2761 19.2761 18.5 19 18.5H15.1429C14.9569 18.5 14.7862 18.3968 14.6999 18.232L8.55461 6.5H5C4.72386 6.5 4.5 6.27614 4.5 6Z" fill="black"/><path fill-rule="evenodd" clip-rule="evenodd" d="M11.5 6C11.5 5.72386 11.7239 5.5 12 5.5H19C19.2761 5.5 19.5 5.72386 19.5 6C19.5 6.27614 19.2761 6.5 19 6.5H12C11.7239 6.5 11.5 6.27614 11.5 6Z" fill="black"/><text x="0" y="39" fill="#000000" font-size="5px" font-weight="bold" font-family="'Helvetica Neue', Helvetica, Arial-Unicode, Arial, Sans-serif">Created by Henning Gross</text><text x="0" y="44" fill="#000000" font-size="5px" font-weight="bold" font-family="'Helvetica Neue', Helvetica, Arial-Unicode, Arial, Sans-serif">from the Noun Project</text></svg>